<svg id="OBJECTS" xmlns="http://www.w3.org/2000/svg" viewBox="0 0 68.72 74.32"><defs><style>.cls-1{fill:#0288d1;}.cls-2{fill:#01579b;}</style></defs><polygon class="cls-1" points="42.84 0 42.84 24.57 29.9 17.09 16.95 24.57 16.95 14.94 42.84 0"/><polygon class="cls-2" points="68.72 14.94 68.72 74.33 55.78 74.33 55.78 32.04 42.84 24.57 42.84 0 68.72 14.94"/><path class="cls-2" d="M249.85,178.76v49.76h17.26V188.73Zm5,22.86-2.41-1.4v-3.6l2.41,1.4Zm0-6.69-2.41-1.39v-3.6l2.41,1.4Zm0-6.68-2.41-1.4v-3.6l2.41,1.4Zm4.84,16.16-2.42-1.4v-3.6l2.42,1.4Zm0-6.69-2.42-1.4v-3.6l2.42,1.4Zm0-6.69-2.42-1.39V186l2.42,1.4Zm4.83,16.16-2.42-1.39v-3.6l2.42,1.4Zm0-6.68-2.42-1.4v-3.6l2.42,1.4Zm0-6.69-2.42-1.4v-3.6l2.42,1.4Z" transform="translate(-215.64 -154.2)"/><polygon class="cls-1" points="14.95 37.38 14.95 74.33 0 74.33 0 46.01 14.95 37.38"/><polygon class="cls-2" points="29.9 46.01 29.9 74.33 14.95 74.33 14.95 37.38 29.9 46.01"/><polygon class="cls-1" points="14.95 34.39 25.59 40.53 25.59 24.57 8.33 34.53 8.33 38.21 14.95 34.39"/></svg>